<svg xmlns="http://www.w3.org/2000/svg" width="77.906" height="77.816" viewBox="0 0 77.906 77.816"><defs><style>.a{fill:#fff;}</style></defs><path class="a" d="M76.213,20.529H52.373a22.754,22.754,0,0,0,5.8-4.041A9.547,9.547,0,0,0,58.176,3,9.761,9.761,0,0,0,44.688,3a26.373,26.373,0,0,0-5.735,9.7A26.373,26.373,0,0,0,33.219,3,9.761,9.761,0,0,0,19.731,3a9.547,9.547,0,0,0,0,13.488,22.754,22.754,0,0,0,5.8,4.041H1.694A1.694,1.694,0,0,0,0,22.223V35.772a1.694,1.694,0,0,0,1.694,1.694H3.387V76.419a1.694,1.694,0,0,0,1.694,1.694H72.825a1.694,1.694,0,0,0,1.694-1.694V37.465h1.694a1.694,1.694,0,0,0,1.694-1.694V22.223A1.693,1.693,0,0,0,76.213,20.529Zm-45.728,54.2H6.775V37.466H30.485Zm0-40.647H3.387V23.917h27.1Zm-8.36-19.985a6.151,6.151,0,1,1,8.7-8.7c4.353,4.353,6.4,12.431,6.446,15.08,0,.017,0,.041,0,.054H37.08C34.326,20.435,26.424,18.389,22.125,14.094ZM44.034,74.725H33.872V37.466H44.034Zm0-40.647H33.872V23.917H44.034ZM40.826,20.529H40.64c0-.014,0-.037,0-.054.047-2.649,2.093-10.727,6.446-15.08a6.151,6.151,0,0,1,8.7,8.7C51.483,18.389,43.58,20.435,40.826,20.529Zm30.306,54.2H47.421V37.466H71.132v37.26Zm3.387-40.647h-27.1V23.917h27.1Z" transform="translate(0 -0.296)"/></svg>