<svg xmlns="http://www.w3.org/2000/svg" width="57.334" height="86.001" viewBox="0 0 57.334 86.001"><defs><style>.a{fill:#fff;}</style></defs><path class="a" d="M158.375,53.333a19.709,19.709,0,1,0,19.708,19.709A19.732,19.732,0,0,0,158.375,53.333Zm0,35.834A16.125,16.125,0,1,1,174.5,73.042,16.143,16.143,0,0,1,158.375,89.167Z" transform="translate(-129.708 -44.375)"/><path class="a" d="M217.525,110.858l-4.108,4.108V97.792a1.792,1.792,0,0,0-3.583,0v17.175l-4.108-4.108a1.791,1.791,0,1,0-2.533,2.534l7.167,7.167a1.791,1.791,0,0,0,2.534,0l7.167-7.167a1.792,1.792,0,0,0-2.534-2.534Z" transform="translate(-182.958 -79.875)"/><path class="a" d="M114,0A28.674,28.674,0,0,0,88.773,42.292l23.659,42.785a1.792,1.792,0,0,0,3.135,0l23.666-42.8A28.672,28.672,0,0,0,114,0Zm22.092,40.556L114,80.507,91.915,40.572a25.084,25.084,0,1,1,44.176-.016Z" transform="translate(-85.333)"/></svg>