<svg xmlns="http://www.w3.org/2000/svg" width="50.051" height="50.051" viewBox="0 0 50.051 50.051"><defs><style>.a{fill:#d83f00;}</style></defs><g transform="translate(-2 -2)"><path class="a" d="M18.01,26.02A10.01,10.01,0,1,0,8,16.01,10.01,10.01,0,0,0,18.01,26.02Zm0-15.015a5.005,5.005,0,1,1-5.005,5.005A5.005,5.005,0,0,1,18.01,11.005Z" transform="translate(9.015 6.01)"/><path class="a" d="M7.005,52.051A5.005,5.005,0,0,1,2,47.046V7.005A5.005,5.005,0,0,1,7.005,2H47.046a5.005,5.005,0,0,1,5.005,5.005V47.046a5.005,5.005,0,0,1-5.005,5.005Zm0-45.046V47.046h7.508a12.513,12.513,0,1,1,25.026,0h7.508V7.005ZM34.533,47.046a7.508,7.508,0,1,0-15.015,0Z"/></g></svg>