<svg xmlns="http://www.w3.org/2000/svg" width="101.877" height="59.428" viewBox="0 0 101.877 59.428"><defs><style>.a{fill:#fff;}</style></defs><path class="a" d="M14.612,22.245H6.122a2.122,2.122,0,0,1,0-4.245h8.49a2.122,2.122,0,0,1,0,4.245Z" transform="translate(12.98 28.694)"/><path class="a" d="M52.767,48.2H47.461a2.122,2.122,0,1,1,0-4.245h3.544l2.861-15.248a14.856,14.856,0,0,0-14.9-14.467H25.035L18.282,43.959h12.2a2.122,2.122,0,0,1,0,4.245H15.624a2.122,2.122,0,0,1-2.071-2.589L21.27,11.656A2.121,2.121,0,0,1,23.341,10h15.63a19.125,19.125,0,0,1,19.1,19.1l-3.222,17.37A2.116,2.116,0,0,1,52.767,48.2Z" transform="translate(43.804 2.735)"/><path class="a" d="M27.612,37.224A10.612,10.612,0,1,1,38.224,26.612,10.624,10.624,0,0,1,27.612,37.224Zm0-16.98a6.367,6.367,0,1,0,6.367,6.367A6.375,6.375,0,0,0,27.612,20.245Z" transform="translate(55.163 22.204)"/><path class="a" d="M16.612,37.224A10.612,10.612,0,1,1,27.224,26.612,10.624,10.624,0,0,1,16.612,37.224Zm0-16.98a6.367,6.367,0,1,0,6.367,6.367A6.375,6.375,0,0,0,16.612,20.245Z" transform="translate(19.469 22.204)"/><path class="a" d="M21.1,13.245H4.122A2.122,2.122,0,0,1,4.122,9H21.1a2.122,2.122,0,0,1,0,4.245Z" transform="translate(6.49 -0.51)"/><path class="a" d="M24.347,16.245H3.122a2.122,2.122,0,0,1,0-4.245H24.347a2.122,2.122,0,0,1,0,4.245Z" transform="translate(3.245 9.224)"/><path class="a" d="M27.592,19.245H2.122a2.122,2.122,0,0,1,0-4.245H27.592a2.122,2.122,0,0,1,0,4.245Z" transform="translate(0 18.959)"/><path class="a" d="M46.449,57.939H31.592a2.122,2.122,0,0,1,0-4.245H44.755L54.4,11.245H6.122A2.122,2.122,0,0,1,6.122,7H57.061a2.122,2.122,0,0,1,2.072,2.589L48.52,56.283a2.124,2.124,0,0,1-2.072,1.655Z" transform="translate(12.98 -7)"/></svg>