<svg xmlns="http://www.w3.org/2000/svg" width="12" height="12" viewBox="0 0 12 12"><defs><style>.a{fill:#d83f00;}</style></defs><path class="a" d="M15.248,16A11.042,11.042,0,0,1,4,4.752.752.752,0,0,1,4.75,4H6.73a.751.751,0,0,1,.742.641,9.312,9.312,0,0,0,.762,2.547l.077.166a.53.53,0,0,1-.173.654,1.451,1.451,0,0,0-.37,2.007,8.863,8.863,0,0,0,2.217,2.217,1.451,1.451,0,0,0,2.006-.37.531.531,0,0,1,.655-.173l.166.077a9.313,9.313,0,0,0,2.547.762A.751.751,0,0,1,16,13.27v1.98a.751.751,0,0,1-.751.75Z" transform="translate(-4 -4)"/></svg>