<svg xmlns="http://www.w3.org/2000/svg" width="55.68" height="50.051" viewBox="0 0 55.68 50.051"><defs><style>.a{fill:#d83f00;}</style></defs><path class="a" d="M26.9,153.517a4.624,4.624,0,1,1-4.624-4.624A4.624,4.624,0,0,1,26.9,153.517ZM41,148.893a4.624,4.624,0,1,0,4.624,4.624A4.624,4.624,0,0,0,41,148.893Zm14.354-21.708L49.659,144.1a3.053,3.053,0,0,1-2.871,2.51H18.057c-2.864,0-2.984-3.146-2.984-3.146s-3.053-22.65-3.2-24.018-1.9-2.383-1.9-2.383l-7.529-3.517c-4.122-2.156-2.248-6.257,0-5.315,9.547,4.5,13.982,6.721,14.268,8.5s.791,6.058.791,6.058v.027c.058-.017.1-.027.1-.027H52.788C57.037,122.782,55.349,127.192,55.349,127.186Zm-8.23,9.417-.058,0H19.205l.574,4.552H45.764Zm2.713-9.179H18.054l.612,4.865H48.394Z" transform="translate(0 -108.09)"/></svg>